name ./resultDataOpenSim/trcMotMarkerGrf/sub09/grf-12-06.mot
datacolumns 19
datarows 30
range 0.48000000 0.59600000
endheader

                time	     ground_force_vx	     ground_force_vy	     ground_force_vz	     ground_force_px	     ground_force_py	     ground_force_pz	   l_ground_force_vx	   l_ground_force_vy	   l_ground_force_vz	   l_ground_force_px	   l_ground_force_py	   l_ground_force_pz	     ground_torque_x	     ground_torque_y	     ground_torque_z	   l_ground_torque_x	   l_ground_torque_y	   l_ground_torque_z	
          0.48000000	         21.74943889	        409.13430131	        -25.02588666	         -0.69210416	          0.00000000	          0.10824055	          0.00000000	          0.00000000	          0.00000000	          0.00000000	          0.00000000	          0.00000000	          0.00000000	          4.40493224	          0.00000000	          0.00000000	          0.00000000	          0.00000000	
          0.48400000	         24.33787839	        418.33838977	        -26.95834886	         -0.69123796	          0.00000000	          0.10875719	          0.00000000	          0.00000000	          0.00000000	          0.00000000	          0.00000000	          0.00000000	          0.00000000	          4.60070089	          0.00000000	          0.00000000	          0.00000000	          0.00000000	
          0.48800000	         26.89744084	        428.04080355	        -29.01244499	         -0.69025167	          0.00000000	          0.10923766	          0.00000000	          0.00000000	          0.00000000	          0.00000000	          0.00000000	          0.00000000	          0.00000000	          4.75562327	          0.00000000	          0.00000000	          0.00000000	          0.00000000	
          0.49200000	         29.61433503	        438.11401595	        -31.07785945	         -0.68917132	          0.00000000	          0.10968825	          0.00000000	          0.00000000	          0.00000000	          0.00000000	          0.00000000	          0.00000000	          0.00000000	          4.87889814	          0.00000000	          0.00000000	          0.00000000	          0.00000000	
          0.49600000	         32.64089662	        448.45115671	        -32.99198172	         -0.68800715	          0.00000000	          0.11011568	          0.00000000	          0.00000000	          0.00000000	          0.00000000	          0.00000000	          0.00000000	          0.00000000	          4.99411605	          0.00000000	          0.00000000	          0.00000000	          0.00000000	
          0.50000000	         36.04475548	        458.99154561	        -34.58221288	         -0.68674469	          0.00000000	          0.11052210	          0.00000000	          0.00000000	          0.00000000	          0.00000000	          0.00000000	          0.00000000	          0.00000000	          5.13349498	          0.00000000	          0.00000000	          0.00000000	          0.00000000	
          0.50400000	         39.77729902	        469.76088256	        -35.70539021	         -0.68535902	          0.00000000	          0.11089720	          0.00000000	          0.00000000	          0.00000000	          0.00000000	          0.00000000	          0.00000000	          0.00000000	          5.32944724	          0.00000000	          0.00000000	          0.00000000	          0.00000000	
          0.50800000	         43.67132545	        480.90851858	        -36.27016605	         -0.68387025	          0.00000000	          0.11121339	          0.00000000	          0.00000000	          0.00000000	          0.00000000	          0.00000000	          0.00000000	          0.00000000	          5.60536902	          0.00000000	          0.00000000	          0.00000000	          0.00000000	
          0.51200000	         47.49599484	        492.63396166	        -36.26229667	         -0.68234486	          0.00000000	          0.11143633	          0.00000000	          0.00000000	          0.00000000	          0.00000000	          0.00000000	          0.00000000	          0.00000000	          5.96779918	          0.00000000	          0.00000000	          0.00000000	          0.00000000	
          0.51600000	         51.04433625	        504.99350170	        -35.78492690	         -0.68078888	          0.00000000	          0.11158814	          0.00000000	          0.00000000	          0.00000000	          0.00000000	          0.00000000	          0.00000000	          0.00000000	          6.40198309	          0.00000000	          0.00000000	          0.00000000	          0.00000000	
          0.52000000	         54.18026542	        517.82415042	        -35.07191067	         -0.67905321	          0.00000000	          0.11175648	          0.00000000	          0.00000000	          0.00000000	          0.00000000	          0.00000000	          0.00000000	          0.00000000	          6.87222978	          0.00000000	          0.00000000	          0.00000000	          0.00000000	
          0.52400000	         56.85292616	        530.92885593	        -34.43430227	         -0.67697941	          0.00000000	          0.11200739	          0.00000000	          0.00000000	          0.00000000	          0.00000000	          0.00000000	          0.00000000	          0.00000000	          7.32721432	          0.00000000	          0.00000000	          0.00000000	          0.00000000	
          0.52800000	         59.12734392	        544.29584383	        -34.17179795	         -0.67461536	          0.00000000	          0.11231187	          0.00000000	          0.00000000	          0.00000000	          0.00000000	          0.00000000	          0.00000000	          0.00000000	          7.70903250	          0.00000000	          0.00000000	          0.00000000	          0.00000000	
          0.53200000	         61.18281493	        558.07738939	        -34.51803607	         -0.67217653	          0.00000000	          0.11258765	          0.00000000	          0.00000000	          0.00000000	          0.00000000	          0.00000000	          0.00000000	          0.00000000	          7.96400687	          0.00000000	          0.00000000	          0.00000000	          0.00000000	
          0.53600000	         63.22648972	        572.37678586	        -35.62249764	         -0.66983447	          0.00000000	          0.11278927	          0.00000000	          0.00000000	          0.00000000	          0.00000000	          0.00000000	          0.00000000	          0.00000000	          8.05308607	          0.00000000	          0.00000000	          0.00000000	          0.00000000	
          0.54000000	         65.39795094	        587.10417039	        -37.52206657	         -0.66756453	          0.00000000	          0.11294078	          0.00000000	          0.00000000	          0.00000000	          0.00000000	          0.00000000	          0.00000000	          0.00000000	          7.95985985	          0.00000000	          0.00000000	          0.00000000	          0.00000000	
          0.54400000	         67.74859519	        602.05987505	        -40.10879303	         -0.66523746	          0.00000000	          0.11308713	          0.00000000	          0.00000000	          0.00000000	          0.00000000	          0.00000000	          0.00000000	          0.00000000	          7.69457782	          0.00000000	          0.00000000	          0.00000000	          0.00000000	
          0.54800000	         70.26756736	        617.15671008	        -43.12479634	         -0.66282008	          0.00000000	          0.11322707	          0.00000000	          0.00000000	          0.00000000	          0.00000000	          0.00000000	          0.00000000	          0.00000000	          7.29319808	          0.00000000	          0.00000000	          0.00000000	          0.00000000	
          0.55200000	         72.89530774	        632.52928393	        -46.18757962	         -0.66045185	          0.00000000	          0.11328786	          0.00000000	          0.00000000	          0.00000000	          0.00000000	          0.00000000	          0.00000000	          0.00000000	          6.81143368	          0.00000000	          0.00000000	          0.00000000	          0.00000000	
          0.55600000	         75.53186643	        648.36685212	        -48.84450247	         -0.65831749	          0.00000000	          0.11317589	          0.00000000	          0.00000000	          0.00000000	          0.00000000	          0.00000000	          0.00000000	          0.00000000	          6.31491512	          0.00000000	          0.00000000	          0.00000000	          0.00000000	
          0.56000000	         78.08077167	        664.61131745	        -50.65203204	         -0.65644816	          0.00000000	          0.11286377	          0.00000000	          0.00000000	          0.00000000	          0.00000000	          0.00000000	          0.00000000	          0.00000000	          5.86767534	          0.00000000	          0.00000000	          0.00000000	          0.00000000	
          0.56400000	         80.51772897	        680.87293078	        -51.27250634	         -0.65467575	          0.00000000	          0.11241289	          0.00000000	          0.00000000	          0.00000000	          0.00000000	          0.00000000	          0.00000000	          0.00000000	          5.52160486	          0.00000000	          0.00000000	          0.00000000	          0.00000000	
          0.56800000	         82.93398952	        696.72593398	        -50.56539979	         -0.65282005	          0.00000000	          0.11189572	          0.00000000	          0.00000000	          0.00000000	          0.00000000	          0.00000000	          0.00000000	          0.00000000	          5.30889913	          0.00000000	          0.00000000	          0.00000000	          0.00000000	
          0.57200000	         85.54091996	        712.07566512	        -48.61286658	         -0.65093364	          0.00000000	          0.11130565	          0.00000000	          0.00000000	          0.00000000	          0.00000000	          0.00000000	          0.00000000	          0.00000000	          5.23825553	          0.00000000	          0.00000000	          0.00000000	          0.00000000	
          0.57600000	         88.63947164	        727.11139501	        -45.65395911	         -0.64931814	          0.00000000	          0.11056574	          0.00000000	          0.00000000	          0.00000000	          0.00000000	          0.00000000	          0.00000000	          0.00000000	          5.29470490	          0.00000000	          0.00000000	          0.00000000	          0.00000000	
          0.58000000	         92.51855999	        741.83527357	        -42.00420083	         -0.64821017	          0.00000000	          0.10964945	          0.00000000	          0.00000000	          0.00000000	          0.00000000	          0.00000000	          0.00000000	          0.00000000	          5.44295762	          0.00000000	          0.00000000	          0.00000000	          0.00000000	
          0.58400000	         97.30351142	        755.75662093	        -38.02365933	         -0.64747946	          0.00000000	          0.10866718	          0.00000000	          0.00000000	          0.00000000	          0.00000000	          0.00000000	          0.00000000	          0.00000000	          5.63428252	          0.00000000	          0.00000000	          0.00000000	          0.00000000	
          0.58800000	        102.90999046	        768.19227475	        -34.07755007	         -0.64673927	          0.00000000	          0.10777832	          0.00000000	          0.00000000	          0.00000000	          0.00000000	          0.00000000	          0.00000000	          0.00000000	          5.81621396	          0.00000000	          0.00000000	          0.00000000	          0.00000000	
          0.59200000	        109.17445771	        778.83282788	        -30.45271258	         -0.64580215	          0.00000000	          0.10703490	          0.00000000	          0.00000000	          0.00000000	          0.00000000	          0.00000000	          0.00000000	          0.00000000	          5.94303853	          0.00000000	          0.00000000	          0.00000000	          0.00000000	
          0.59600000	        115.97448657	        787.88609471	        -27.30487653	         -0.64486546	          0.00000000	          0.10635956	          0.00000000	          0.00000000	          0.00000000	          0.00000000	          0.00000000	          0.00000000	          0.00000000	          5.98437114	          0.00000000	          0.00000000	          0.00000000	          0.00000000	
